<mxfile host="app.diagrams.net" modified="2021-06-29T09:21:27.446Z" agent="5.0 (Windows NT 10.0; Win64; x64) AppleWebKit/537.36 (KHTML, like Gecko) Chrome/91.0.4472.114 Safari/537.36" etag="UkgW5hZqy1fiUnOoGFhf" version="14.8.2" type="github">
  <diagram id="F2jqecB6__dY6EAmVlrt" name="Page-1">
    <mxGraphModel dx="1052" dy="497" grid="1" gridSize="10" guides="1" tooltips="1" connect="1" arrows="1" fold="1" page="1" pageScale="1" pageWidth="827" pageHeight="1169" background="#F1FAEE" math="0" shadow="0">
      <root>
        <mxCell id="0" />
        <mxCell id="1" parent="0" />
        <mxCell id="6Ukel7Z7MjjmFJ5zXvj1-1" value="" style="whiteSpace=wrap;html=1;aspect=fixed;sketch=1;fillColor=#A8DADC;strokeColor=#457B9D;fontColor=#1D3557;" vertex="1" parent="1">
          <mxGeometry x="210" y="120" width="50" height="50" as="geometry" />
        </mxCell>
        <mxCell id="6Ukel7Z7MjjmFJ5zXvj1-2" value="" style="endArrow=classic;html=1;exitX=1;exitY=0.5;exitDx=0;exitDy=0;sketch=1;strokeColor=#457B9D;fontColor=#1D3557;labelBackgroundColor=#F1FAEE;entryX=0.595;entryY=0.009;entryDx=0;entryDy=0;entryPerimeter=0;" edge="1" parent="1" source="6Ukel7Z7MjjmFJ5zXvj1-1" target="6Ukel7Z7MjjmFJ5zXvj1-3">
          <mxGeometry width="50" height="50" relative="1" as="geometry">
            <mxPoint x="320" y="170" as="sourcePoint" />
            <mxPoint x="340" y="145" as="targetPoint" />
          </mxGeometry>
        </mxCell>
        <mxCell id="6Ukel7Z7MjjmFJ5zXvj1-3" value="" style="whiteSpace=wrap;html=1;aspect=fixed;sketch=1;fillColor=#A8DADC;strokeColor=#457B9D;fontColor=#1D3557;" vertex="1" parent="1">
          <mxGeometry x="260" y="220" width="80" height="80" as="geometry" />
        </mxCell>
      </root>
    </mxGraphModel>
  </diagram>
</mxfile>
